<mxfile host="app.diagrams.net" modified="2023-05-02T12:47:31.430Z" agent="Mozilla/5.0 (Windows NT 10.0; Win64; x64) AppleWebKit/537.36 (KHTML, like Gecko) Chrome/112.0.0.0 Safari/537.36" etag="uN8mI8PD-a9hcfsskk_K" version="21.2.2" type="google">
  <diagram name="Página-1" id="MsDtteWQPEhZAXmNjhA2">
    <mxGraphModel grid="1" page="1" gridSize="10" guides="1" tooltips="1" connect="1" arrows="1" fold="1" pageScale="1" pageWidth="827" pageHeight="1169" background="none" math="0" shadow="0">
      <root>
        <mxCell id="0" />
        <mxCell id="1" parent="0" />
        <mxCell id="PD1M-B71ATFkhtHgrxnQ-22" value="" style="swimlane;childLayout=stackLayout;resizeParent=1;resizeParentMax=0;horizontal=0;startSize=20;horizontalStack=0;html=1;" vertex="1" parent="1">
          <mxGeometry x="40" y="20" width="890" height="250" as="geometry" />
        </mxCell>
        <mxCell id="PD1M-B71ATFkhtHgrxnQ-23" value="Cliente" style="swimlane;startSize=20;horizontal=0;html=1;" vertex="1" parent="PD1M-B71ATFkhtHgrxnQ-22">
          <mxGeometry x="20" width="870" height="120" as="geometry" />
        </mxCell>
        <mxCell id="PD1M-B71ATFkhtHgrxnQ-54" style="edgeStyle=orthogonalEdgeStyle;rounded=0;orthogonalLoop=1;jettySize=auto;html=1;" edge="1" parent="PD1M-B71ATFkhtHgrxnQ-23" source="PD1M-B71ATFkhtHgrxnQ-46">
          <mxGeometry relative="1" as="geometry">
            <mxPoint x="130" y="150" as="targetPoint" />
          </mxGeometry>
        </mxCell>
        <mxCell id="PD1M-B71ATFkhtHgrxnQ-46" value="Solicitar refrigerante" style="ellipse;shape=doubleEllipse;whiteSpace=wrap;html=1;aspect=fixed;" vertex="1" parent="PD1M-B71ATFkhtHgrxnQ-23">
          <mxGeometry x="30" y="25" width="70" height="70" as="geometry" />
        </mxCell>
        <mxCell id="PD1M-B71ATFkhtHgrxnQ-58" style="edgeStyle=orthogonalEdgeStyle;rounded=0;orthogonalLoop=1;jettySize=auto;html=1;entryX=0.02;entryY=0.517;entryDx=0;entryDy=0;entryPerimeter=0;" edge="1" parent="PD1M-B71ATFkhtHgrxnQ-23" source="PD1M-B71ATFkhtHgrxnQ-51" target="PD1M-B71ATFkhtHgrxnQ-52">
          <mxGeometry relative="1" as="geometry" />
        </mxCell>
        <mxCell id="PD1M-B71ATFkhtHgrxnQ-51" value="Verificar se tem dinheiro" style="shape=ext;double=1;rounded=1;whiteSpace=wrap;html=1;" vertex="1" parent="PD1M-B71ATFkhtHgrxnQ-23">
          <mxGeometry x="290" y="37.5" width="90" height="45" as="geometry" />
        </mxCell>
        <mxCell id="PD1M-B71ATFkhtHgrxnQ-66" style="edgeStyle=orthogonalEdgeStyle;rounded=0;orthogonalLoop=1;jettySize=auto;html=1;entryX=0;entryY=0.5;entryDx=0;entryDy=0;" edge="1" parent="PD1M-B71ATFkhtHgrxnQ-23" source="PD1M-B71ATFkhtHgrxnQ-52" target="PD1M-B71ATFkhtHgrxnQ-62">
          <mxGeometry relative="1" as="geometry" />
        </mxCell>
        <mxCell id="PD1M-B71ATFkhtHgrxnQ-67" style="edgeStyle=orthogonalEdgeStyle;rounded=0;orthogonalLoop=1;jettySize=auto;html=1;entryX=0;entryY=0.75;entryDx=0;entryDy=0;" edge="1" parent="PD1M-B71ATFkhtHgrxnQ-23" source="PD1M-B71ATFkhtHgrxnQ-52" target="PD1M-B71ATFkhtHgrxnQ-59">
          <mxGeometry relative="1" as="geometry">
            <mxPoint x="530" y="110" as="targetPoint" />
            <Array as="points">
              <mxPoint x="460" y="100" />
              <mxPoint x="660" y="100" />
              <mxPoint x="660" y="59" />
            </Array>
          </mxGeometry>
        </mxCell>
        <mxCell id="PD1M-B71ATFkhtHgrxnQ-52" value="" style="html=1;whiteSpace=wrap;aspect=fixed;shape=isoRectangle;" vertex="1" parent="PD1M-B71ATFkhtHgrxnQ-23">
          <mxGeometry x="410" y="30" width="100" height="60" as="geometry" />
        </mxCell>
        <mxCell id="PD1M-B71ATFkhtHgrxnQ-53" value="" style="verticalLabelPosition=bottom;verticalAlign=top;html=1;shape=mxgraph.basic.x" vertex="1" parent="PD1M-B71ATFkhtHgrxnQ-23">
          <mxGeometry x="435" y="45" width="50" height="30" as="geometry" />
        </mxCell>
        <mxCell id="PD1M-B71ATFkhtHgrxnQ-59" value="Ir embora" style="shape=ext;double=1;rounded=1;whiteSpace=wrap;html=1;" vertex="1" parent="PD1M-B71ATFkhtHgrxnQ-23">
          <mxGeometry x="740" y="25" width="90" height="45" as="geometry" />
        </mxCell>
        <mxCell id="PD1M-B71ATFkhtHgrxnQ-73" style="edgeStyle=orthogonalEdgeStyle;rounded=0;orthogonalLoop=1;jettySize=auto;html=1;entryX=0;entryY=0.5;entryDx=0;entryDy=0;" edge="1" parent="PD1M-B71ATFkhtHgrxnQ-23" source="PD1M-B71ATFkhtHgrxnQ-62" target="PD1M-B71ATFkhtHgrxnQ-71">
          <mxGeometry relative="1" as="geometry" />
        </mxCell>
        <mxCell id="PD1M-B71ATFkhtHgrxnQ-62" value="Pagar" style="shape=ext;double=1;rounded=1;whiteSpace=wrap;html=1;" vertex="1" parent="PD1M-B71ATFkhtHgrxnQ-23">
          <mxGeometry x="550" y="10" width="70" height="45" as="geometry" />
        </mxCell>
        <mxCell id="PD1M-B71ATFkhtHgrxnQ-68" value="Sim" style="text;strokeColor=none;align=center;fillColor=none;html=1;verticalAlign=middle;whiteSpace=wrap;rounded=0;" vertex="1" parent="PD1M-B71ATFkhtHgrxnQ-23">
          <mxGeometry x="485" y="7.5" width="60" height="30" as="geometry" />
        </mxCell>
        <mxCell id="PD1M-B71ATFkhtHgrxnQ-70" value="Não" style="text;strokeColor=none;align=center;fillColor=none;html=1;verticalAlign=middle;whiteSpace=wrap;rounded=0;" vertex="1" parent="PD1M-B71ATFkhtHgrxnQ-23">
          <mxGeometry x="570" y="75" width="60" height="30" as="geometry" />
        </mxCell>
        <mxCell id="PD1M-B71ATFkhtHgrxnQ-74" style="edgeStyle=orthogonalEdgeStyle;rounded=0;orthogonalLoop=1;jettySize=auto;html=1;exitX=1;exitY=0.5;exitDx=0;exitDy=0;entryX=0;entryY=0.25;entryDx=0;entryDy=0;" edge="1" parent="PD1M-B71ATFkhtHgrxnQ-23" source="PD1M-B71ATFkhtHgrxnQ-71" target="PD1M-B71ATFkhtHgrxnQ-59">
          <mxGeometry relative="1" as="geometry" />
        </mxCell>
        <mxCell id="PD1M-B71ATFkhtHgrxnQ-71" value="Pegar o Produto" style="shape=ext;double=1;rounded=1;whiteSpace=wrap;html=1;" vertex="1" parent="PD1M-B71ATFkhtHgrxnQ-23">
          <mxGeometry x="650" y="7.5" width="70" height="40" as="geometry" />
        </mxCell>
        <mxCell id="PD1M-B71ATFkhtHgrxnQ-24" value="Supermercado" style="swimlane;startSize=20;horizontal=0;html=1;" vertex="1" parent="PD1M-B71ATFkhtHgrxnQ-22">
          <mxGeometry x="20" y="120" width="870" height="130" as="geometry">
            <mxRectangle x="20" y="120" width="700" height="30" as="alternateBounds" />
          </mxGeometry>
        </mxCell>
        <mxCell id="PD1M-B71ATFkhtHgrxnQ-55" style="edgeStyle=orthogonalEdgeStyle;rounded=0;orthogonalLoop=1;jettySize=auto;html=1;entryX=0.08;entryY=0.567;entryDx=0;entryDy=0;entryPerimeter=0;" edge="1" parent="PD1M-B71ATFkhtHgrxnQ-24" source="PD1M-B71ATFkhtHgrxnQ-48" target="PD1M-B71ATFkhtHgrxnQ-49">
          <mxGeometry relative="1" as="geometry">
            <mxPoint x="210" y="65" as="targetPoint" />
          </mxGeometry>
        </mxCell>
        <mxCell id="PD1M-B71ATFkhtHgrxnQ-48" value="Verificar se tem" style="shape=ext;double=1;rounded=1;whiteSpace=wrap;html=1;" vertex="1" parent="PD1M-B71ATFkhtHgrxnQ-24">
          <mxGeometry x="90" y="40" width="90" height="50" as="geometry" />
        </mxCell>
        <mxCell id="PD1M-B71ATFkhtHgrxnQ-57" style="edgeStyle=orthogonalEdgeStyle;rounded=0;orthogonalLoop=1;jettySize=auto;html=1;" edge="1" parent="PD1M-B71ATFkhtHgrxnQ-24" source="PD1M-B71ATFkhtHgrxnQ-49">
          <mxGeometry relative="1" as="geometry">
            <mxPoint x="340" y="-30" as="targetPoint" />
          </mxGeometry>
        </mxCell>
        <mxCell id="PD1M-B71ATFkhtHgrxnQ-49" value="" style="html=1;whiteSpace=wrap;aspect=fixed;shape=isoRectangle;" vertex="1" parent="PD1M-B71ATFkhtHgrxnQ-24">
          <mxGeometry x="220" y="30" width="100" height="60" as="geometry" />
        </mxCell>
        <mxCell id="PD1M-B71ATFkhtHgrxnQ-50" value="" style="verticalLabelPosition=bottom;verticalAlign=top;html=1;shape=mxgraph.basic.x" vertex="1" parent="PD1M-B71ATFkhtHgrxnQ-24">
          <mxGeometry x="245" y="45" width="50" height="30" as="geometry" />
        </mxCell>
        <mxCell id="PD1M-B71ATFkhtHgrxnQ-63" value="Sim" style="text;strokeColor=none;align=center;fillColor=none;html=1;verticalAlign=middle;whiteSpace=wrap;rounded=0;rotation=-90;" vertex="1" parent="PD1M-B71ATFkhtHgrxnQ-24">
          <mxGeometry x="294" width="60" height="30" as="geometry" />
        </mxCell>
        <mxCell id="PD1M-B71ATFkhtHgrxnQ-64" value="Não" style="text;strokeColor=none;align=center;fillColor=none;html=1;verticalAlign=middle;whiteSpace=wrap;rounded=0;" vertex="1" parent="PD1M-B71ATFkhtHgrxnQ-24">
          <mxGeometry x="510" y="40" width="60" height="30" as="geometry" />
        </mxCell>
        <mxCell id="PD1M-B71ATFkhtHgrxnQ-61" style="edgeStyle=orthogonalEdgeStyle;rounded=0;orthogonalLoop=1;jettySize=auto;html=1;entryX=0.5;entryY=1;entryDx=0;entryDy=0;" edge="1" parent="PD1M-B71ATFkhtHgrxnQ-22" source="PD1M-B71ATFkhtHgrxnQ-49" target="PD1M-B71ATFkhtHgrxnQ-59">
          <mxGeometry relative="1" as="geometry" />
        </mxCell>
      </root>
    </mxGraphModel>
  </diagram>
</mxfile>
